<svg xmlns="http://www.w3.org/2000/svg" xmlns:xlink="http://www.w3.org/1999/xlink" xmlns:lucid="lucid" width="160" height="120"><g transform="translate(0 0)" lucid:page-tab-id="0_0"><path d="M0 0h1870.4v1323.2H0z" fill="#fff"/><path d="M20 26c0-3.3 2.7-6 6-6h68c3.3 0 6 2.7 6 6v28c0 3.3-2.7 6-6 6H26c-3.3 0-6-2.7-6-6z" stroke="#5e5e5e" stroke-width="3" fill="#fff"/><use xlink:href="#a" transform="matrix(1,0,0,1,32,32) translate(5.777777777777779 17.77777777777778)"/><use xlink:href="#b" transform="matrix(1,0,0,1,32,32) translate(28 17.77777777777778)"/><path d="M60 66c0-3.3 2.7-6 6-6h68c3.3 0 6 2.7 6 6v28c0 3.3-2.7 6-6 6H66c-3.3 0-6-2.7-6-6z" stroke="#5e5e5e" stroke-width="3" fill="#fff"/><use xlink:href="#c" transform="matrix(1,0,0,1,72,72) translate(6.888888888888889 17.77777777777778)"/><use xlink:href="#d" transform="matrix(1,0,0,1,72,72) translate(28 17.77777777777778)"/><defs><path fill="#333" d="M40-248c20 16 26 34 38 47 12 0 12-21 4-29-7-6-19-14-39-22zm-19 77c20 17 24 36 37 49 11 0 11-21 4-29-6-8-20-15-39-24zM65 47c6-31-9-64 2-96l33-95-3-1c-19 37-33 69-46 96-6 12-13 11-26 12v3c29 3 17 41 20 69-1 13 13 21 20 12zm108-266c-7-18 15-31 1-35-6 0-13-2-20-5 3 13 2 25 2 40h-56l6 9h50v39c19 5 18-21 17-39h67v39c19 5 18-21 17-39h64c9 1 10-8 2-10-8-5-14-10-18-16l-15 17h-33c-7-18 15-31 1-35-6 0-13-2-20-5 3 13 2 25 2 40h-67zm122 86c-1-8 21-13 6-20-5-3-10-7-15-13l-11 10H135l-20-10c11 21 0 59 7 84 7-3 17-3 14-15h58v29h-90l6 9h84c0 11-1 20-3 29H85l6 10h97c-18 43-41 47-102 71l3 3c70-24 97-27 116-74h15c16 35 48 53 83 67 9-8 20-12 31-12v-4c-49-10-79-21-108-51h101c8 0 10-10 1-11-8-5-14-11-19-17l-17 18h-85c2-9 3-18 3-29h95c9 1 9-8 2-10-7-4-13-9-17-14l-15 15h-65v-29h69c-2 10 5 10 13 6 8-8 1-29 3-42zm-159 26v-40h58v40h-58zm74-40h69v40h-69v-40" id="e"/><use transform="matrix(0.06172839506172839,0,0,0.06172839506172839,0,0)" xlink:href="#e" id="a"/><path fill="#333" d="M181-217c-2-16 2-27 7-35-6-5-20-5-29-10 6 10 4 29 4 45H66v-16h-4c5 23-47 51-19 66 17-2 20-18 22-40h226c-5 15-21 24-18 33 15-6 23-22 45-25 9-1 10-11 3-14-6-4-13-9-19-16l-14 12H181zm66 73c6-1 38-7 19-17-6-3-13-9-19-17l-14 11H73l5 9h155l-49 39c-7 0-15-2-23-5 3 11 2 36 2 53H22l5 9h136v82c-5 12-36 4-49 4v4c21 4 29 15 36 26 15 0 34-16 33-34v-82h136c12 1 11-8 3-11-10-6-18-13-24-20l-19 22h-96c-9-56 33-51 64-73" id="f"/><use transform="matrix(0.06172839506172839,0,0,0.06172839506172839,0,0)" xlink:href="#f" id="b"/><path fill="#333" d="M188-107c10-35 13-84-36-68-7 2-14 4-22 7L62-24c-3 10-18 16-24 4 1-20 16-26 24-43l47-99c-25 5-49 36-65 8-3-5-12-10-10-18 19 10 56 8 81-4 5-22 28-58 3-73-8-5-5-11 5-9 13 3 40 12 33 28l-21 49c33-11 81-17 77 34-5 60-22 127-72 144-10-10-16-30-28-38-3-2-3-4-2-6 13-1 34 21 49 5 13-13 23-43 29-65zm109 10c-13-9-28-17-51-18-8 0-10-7-1-7 15-2 45 0 36-18-11-24-31-39-52-52-4-2-5-4-4-6 33-1 66 31 80 54 8 13 12 46-8 47" id="g"/><use transform="matrix(0.06172839506172839,0,0,0.06172839506172839,0,0)" xlink:href="#g" id="c"/><path fill="#333" d="M200-213c-6 18-41 11-65 16L69-83c-8 12-19 13-24 3 5-29 30-42 44-66l29-49c-31 6-66 17-74-17 15 9 56 10 82 3 8-19 27-41 6-56-4-3-3-9 2-7 18 5 42 21 22 38l-13 23c18-1 45-21 57-2zM105-17c6-34 52-38 91-34l1-62c0-37 48-35 69-53-3-9-24-10-24-19 26 0 58 11 62 36-4 24-29-1-47 2-59-8-43 54-42 100 24 6 49 17 53 40 0 6-4 11-10 11-18-4-26-23-43-30 1 32-21 46-52 46s-55-10-58-37zm14 0c9 33 88 27 77-17-27-11-69-7-77 17" id="h"/><use transform="matrix(0.06172839506172839,0,0,0.06172839506172839,0,0)" xlink:href="#h" id="d"/></defs></g></svg>